# xmcd
#
# Track frame offsets:
# 187
# 36842
# 61125
# 96362
# 128862
# 162380
#
# Disc length: 2535 seconds
# Revision: 3
# Processed by: cddbd v1.5.1PL0 Copyright (c) Steve Scherf et al.
# Submitted via: MusicBin 0.4
#
DISCID=4c09e506
DTITLE=Lee Konitz - Very Cool
DYEAR=1957
DGENRE=Jazz
TTITLE0=Sunflower
TTITLE1=Stairway To The Stars
TTITLE2=Movin' Around
TTITLE3=Kary's Trance
TTITLE4=Crazy She Calls Me
TTITLE5=Billie's Bounce
EXTD=Lee Konitz (as]\nDon Ferrara (t]\nSal Mosca (p]\nPeter Ind (b
EXTD=]\nShadow Wilson (d]\n\nNYC May 5 1957
EXTT0=
EXTT1=
EXTT2=
EXTT3=
EXTT4=
EXTT5=
PLAYORDER=
